<?xml version="1.0" encoding="UTF-8" standalone="no"?>
<svg
   version="1.1"
   width="375"
   height="375"
   viewBox="75 75 225 225"
   id="svg26"
   sodipodi:docname="html_css_neon.svg"
   inkscape:version="1.4.2 (f4327f4, 2025-05-13)"
   xmlns:inkscape="http://www.inkscape.org/namespaces/inkscape"
   xmlns:sodipodi="http://sodipodi.sourceforge.net/DTD/sodipodi-0.dtd"
   xmlns:xlink="http://www.w3.org/1999/xlink"
   xmlns="http://www.w3.org/2000/svg"
   xmlns:svg="http://www.w3.org/2000/svg">
  <sodipodi:namedview
     id="namedview26"
     pagecolor="#ffffff"
     bordercolor="#999999"
     borderopacity="1"
     inkscape:showpageshadow="2"
     inkscape:pageopacity="0"
     inkscape:pagecheckerboard="0"
     inkscape:deskcolor="#d1d1d1"
     inkscape:zoom="2.28"
     inkscape:cx="187.5"
     inkscape:cy="187.5"
     inkscape:window-width="1920"
     inkscape:window-height="1057"
     inkscape:window-x="-8"
     inkscape:window-y="-8"
     inkscape:window-maximized="1"
     inkscape:current-layer="g10" />
  <defs
     id="defs9">
    <clipPath
       id="clip_0">
      <path
         transform="matrix(.24,0,0,.24,0,0)"
         d="M0 0H1562.5V1562.5H0Z"
         clip-rule="evenodd"
         id="path1" />
    </clipPath>
    <clipPath
       id="clip_1">
      <path
         transform="matrix(.24,0,0,.24,0,0)"
         d="M0 0H1562.5V1562.5H0Z"
         clip-rule="evenodd"
         id="path2" />
    </clipPath>
    <clipPath
       id="clip_2">
      <path
         transform="matrix(.24,0,0,.24,0,0)"
         d="M0 0H1562.5V1562.5H0Z"
         id="path3" />
    </clipPath>
    <clipPath
       id="clip_3">
      <path
         transform="matrix(.24,0,0,.24,0,0)"
         d="M0 0H1562.5V1562.5H0Z"
         id="path4" />
    </clipPath>
    <clipPath
       id="clip_4">
      <path
         transform="matrix(.24,0,0,.24,0,0)"
         d="M546.875 546.875H1015.625V1015.625H546.875Z"
         id="path5" />
    </clipPath>
    <clipPath
       id="clip_5">
      <path
         transform="matrix(.24,0,0,.24,0,0)"
         d="M546.875 546.875H1015.625V1015.625H546.875Z"
         id="path6" />
    </clipPath>
    <clipPath
       id="clip_6">
      <path
         transform="matrix(.24,0,0,.24,0,0)"
         d="M781.25 546.875C651.8083 546.875 546.875 651.8083 546.875 781.25 546.875 910.6918 651.8083 1015.625 781.25 1015.625 910.6918 1015.625 1015.625 910.6918 1015.625 781.25 1015.625 651.8083 910.6918 546.875 781.25 546.875Z"
         id="path7" />
    </clipPath>
    <clipPath
       id="clip_7">
      <path
         transform="matrix(.24,0,0,.24,0,0)"
         d="M625 692.0265H937.5V942.0265H625Z"
         clip-rule="evenodd"
         id="path8" />
    </clipPath>
    <clipPath
       id="clip_8">
      <path
         transform="matrix(.24,0,0,.24,0,0)"
         d="M0 0H1562.5V1562.5H0Z"
         clip-rule="evenodd"
         id="path9" />
    </clipPath>
    <path
       id="font_9_699"
       d="M.6142578 .6970062V0H.5232544V.3156128H.16815186V0H.07714844V.6970062H.16815186V.390625H.5232544V.6970062H.6142578Z" />
    <path
       id="font_9_711"
       d="M.5061798 .697052V.6230469H.31640626V0H.22541809V.6230469H.034179689V.697052H.5061798Z" />
    <path
       id="font_9_704"
       d="M.7841797 .69200137V0H.69317629V.51600649L.46316529 0H.39916993L.16815186 .5169983V0H.07714844V.69200137H.17515564L.4311676 .11999512 .68717959 .69200137H.7841797Z" />
    <path
       id="font_9_703"
       d="M.16815186 .07400513H.41210938V0H.07714844V.69677737H.16815186V.07400513Z" />
    <path
       id="font_9_3"
       d="M0 0Z" />
    <path
       id="font_9_665"
       d="M.61224368 .00030517579 .52124026 .0922699C.4872335 .056940717 .45089213 .030776978 .4122162 .0137786869 .37354026-.0032196046 .3298645-.01171875 .28118897-.01171875 .23316448-.01171875 .19064839-.003056844 .15364075 .014266968 .116633098 .031600954 .08795675 .05626424 .067611698 .088256839 .047276815 .120259609 .037109376 .15759278 .037109376 .20025635 .037109376 .24891155 .05096944 .29173789 .078689578 .32873536 .106409709 .36573283 .14732361 .39489747 .20143128 .41622926 .18009949 .44153849 .1647644 .46484886 .15542603 .48616029 .14609783 .50747177 .14143372 .53078207 .14143372 .5560913 .14143372 .5853984 .14892578 .6118724 .16390991 .6355133 .17890422 .6591644 .20039368 .6776479 .2283783 .69096377 .25637309 .7042796 .2886912 .7109375 .32533265 .7109375 .36131288 .7109375 .392629 .7039439 .419281 .68995669 .445933 .6759694 .46592204 .65648397 .47924806 .63150027 .49257408 .60651656 .49857078 .57870486 .49723817 .5480652H.40625C.40625 .5753581 .39830018 .5968272 .3824005 .61247256 .36651103 .62811788 .34598796 .63594058 .3208313 .63594058 .29434205 .63594058 .27298484 .6284485 .25675965 .61346438 .24053447 .5984802 .23242188 .57933047 .23242188 .556015 .23242188 .536026 .23792012 .5167033 .24891663 .49804688 .25991313 .47940064 .2784017 .456426 .30438233 .42912293L.51223757 .22029114 .5302429 .24829102 .59825137 .3623047H.6962433L.61424258 .22029114C.60291036 .20028179 .5895793 .17927552 .57424929 .15727234L.73124697 .00030517579H.61224368M.2811737 .06626892C.3171946 .06626892 .34970603 .073272708 .3787079 .08728027 .40771995 .10128784 .43523155 .12295532 .46124269 .15228272L.25639344 .35830689C.170873 .3256429 .1281128 .27397157 .1281128 .20329285 .1281128 .16395569 .14228313 .13128154 .17062378 .105270389 .19896443 .07926941 .23581441 .06626892 .2811737 .06626892Z" />
    <path
       id="font_9_694"
       d="M.04296875 .34910584C.04296875 .417099 .058298749 .47825624 .08895874 .5325775 .119628909 .586909 .16146343 .6294047 .21446228 .6600647 .2674713 .6907247 .3263092 .7060547 .39097596 .7060547 .46697489 .7060547 .53330489 .6877187 .5899658 .65104678 .64663699 .61438497 .687973 .5623932 .713974 .4950714H.6049652C.5856374 .5370636 .55780538 .5693919 .5214691 .5920563 .48513285 .61473086 .44163514 .6260681 .39097596 .6260681 .34230042 .6260681 .29862977 .6147359 .259964 .59207156 .22129822 .56940719 .19096375 .53724166 .16896057 .49557496 .14696758 .45391847 .13597107 .40509544 .13597107 .34910584 .13597107 .29377748 .14696758 .24527996 .16896057 .20361328 .19096375 .16195679 .22129822 .12979634 .259964 .10713196 .29862977 .08446757 .34230042 .073135379 .39097596 .073135379 .44163514 .073135379 .48513285 .08429972 .5214691 .10662842 .55780538 .12895711 .5856374 .16112264 .6049652 .203125H.713974C.687973 .13645427 .64663699 .08495585 .5899658 .04862976 .53330489 .01230367 .46697489-.005859375 .39097596-.005859375 .3263092-.005859375 .2674713 .009302775 .21446228 .039627077 .16146343 .06996155 .119628909 .11212158 .08895874 .16610718 .058298749 .22010295 .04296875 .2811025 .04296875 .34910584Z" />
    <path
       id="font_9_710"
       d="M.29708863-.0068359377C.25099693-.0068359377 .20974732 .001332601 .17333985 .017669678 .13694255 .034006757 .10839335 .056671144 .08769226 .08566284 .06699117 .11465454 .056640626 .14815267 .056640626 .18615723H.1535492C.15687561 .15348308 .17036946 .12598165 .19403076 .103652957 .21769206 .081334438 .2521871 .07017517 .29751588 .07017517 .34085084 .07017517 .37501527 .08100382 .40000917 .10266113 .42500306 .12431844 .4375 .15215047 .4375 .18615723 .4375 .21280925 .43016563 .23446656 .41549684 .25112916 .40082804 .2678019 .38249717 .2804667 .36050416 .28912355 .33851115 .29779054 .30884806 .3071238 .2715149 .3171234 .2255249 .32912699 .18869527 .3411255 .161026 .3531189 .1333669 .36512248 .109705608 .3839518 .090042117 .40960694 .070378627 .43527223 .060546876 .46976725 .060546876 .51309207 .060546876 .5510966 .07021078 .5847626 .089538577 .61408999 .10887655 .64341738 .13604228 .66607668 .17103577 .6820679 .20602925 .6980591 .24619548 .7060547 .29153443 .7060547 .3568522 .7060547 .41033937 .6897227 .45199586 .6570587 .4936625 .6244049 .5171611 .581075 .52249148 .5270691H.4225006C.41916404 .55374148 .40516154 .57724 .38049317 .5975647 .35583497 .6178996 .32318116 .628067 .28253175 .628067 .24452718 .628067 .21352642 .6182353 .18952942 .5985718 .1655426 .57890829 .1535492 .5514119 .1535492 .51608279 .1535492 .49075318 .16071575 .47008769 .17504883 .4540863 .18938191 .43808494 .20704143 .42591859 .22802735 .41758729 .24902344 .40925599 .27852378 .399765 .31652833 .38911439 .3625183 .37643943 .3995107 .36393229 .4275055 .35159303 .45550028 .33926393 .47949729 .32026673 .49949647 .29460145 .51949569 .26894633 .52949526 .23412578 .52949526 .19013977 .52949526 .15614319 .5204773 .12414551 .5024414 .09414673 .48441569 .06414795 .45770265 .039815267 .42230226 .021148682 .38690187 .0024922689 .34516398-.0068359377 .29708863-.0068359377Z" />
  </defs>
  <g
     clip-path="url(#clip_0)"
     id="g10" />
  <g
     clip-path="url(#clip_2)"
     id="g16">
    <g
       clip-path="url(#clip_3)"
       id="g15">
      <g
         clip-path="url(#clip_4)"
         id="g14">
        <g
           clip-path="url(#clip_5)"
           id="g13">
          <g
             clip-path="url(#clip_6)"
             id="g12">
            <path
               transform="matrix(.75,0,0,.75,131.25,131.25)"
               stroke-width="2"
               stroke-linecap="butt"
               stroke-miterlimit="4"
               stroke-linejoin="miter"
               fill="none"
               stroke="#ff5c00"
               d="M75 0C33.578645 0 0 33.578645 0 75 0 116.42136 33.578645 150 75 150 116.42136 150 150 116.42136 150 75 150 33.578645 116.42136 0 75 0Z"
               id="path12" />
          </g>
        </g>
      </g>
    </g>
  </g>
  <g
     clip-path="url(#clip_7)"
     id="g17">
    <path
       transform="matrix(.1171875,0,0,.1171875,150,166.08635)"
       d="M392.8 1.2C375.8-3.7 358.09999 6.2 353.19999 23.2L225.19998 471.2C220.29999 488.2 230.19998 505.90003 247.19998 510.80003 264.19999 515.7 281.9 505.80003 286.8 488.80003L414.8 40.80002C419.69999 23.800019 409.8 6.1000177 392.8 1.2000198V1.2ZM473.4 121.299999C460.9 133.79999 460.9 154.09999 473.4 166.59999L562.7 256 473.30003 345.4C460.80003 357.9 460.80003 378.19999 473.30003 390.69999 485.80003 403.19999 506.1 403.19999 518.60006 390.69999L630.60006 278.69999C643.10006 266.19999 643.10006 245.89998 630.60006 233.39998L518.60006 121.39998C506.10005 108.89998 485.80006 108.89998 473.30006 121.39998L473.4 121.299999ZM166.69998 121.299999C154.19998 108.799999 133.89998 108.799999 121.39998 121.299999L9.399979 233.29999C-3.1000214 245.79999-3.1000214 266.09999 9.399979 278.59999L121.39998 390.59999C133.89998 403.09999 154.19998 403.09999 166.69998 390.59999 179.19998 378.09999 179.19998 357.8 166.69998 345.3L77.3 256 166.70001 166.6C179.20001 154.1 179.20001 133.8 166.70001 121.3L166.69998 121.299999Z"
       fill="#ff5c00"
       id="path16" />
  </g>
  <g
     clip-path="url(#clip_8)"
     id="g26">
    <use
       data-text="H"
       xlink:href="#font_9_699"
       transform="matrix(9.956195,-12.521749,-12.521749,-9.956195,152.84659,170.68164)"
       fill="#ff5c00"
       id="use17" />
    <use
       data-text="T"
       xlink:href="#font_9_711"
       transform="matrix(12.442596,-10.054939,-10.054939,-12.442596,159.13976,162.80553)"
       fill="#ff5c00"
       id="use18" />
    <use
       data-text="M"
       xlink:href="#font_9_704"
       transform="matrix(14.539733,-6.6720426,-6.6720426,-14.539733,164.76811,157.67479)"
       fill="#ff5c00"
       id="use19" />
    <use
       data-text="L"
       xlink:href="#font_9_703"
       transform="matrix(15.678099,-3.1807647,-3.1807647,-15.678099,176.43547,152.62056)"
       fill="#ff5c00"
       id="use20" />
    <use
       data-text=" "
       xlink:href="#font_9_3"
       transform="matrix(15.9515709,-1.2113682,-1.2113682,-15.9515709,182.6535,151.40622)"
       fill="#ff5c00"
       id="use21" />
    <use
       data-text="&amp;"
       xlink:href="#font_9_665"
       transform="matrix(15.912395,1.6479373,1.6479373,-15.912395,186.10675,150.73397)"
       fill="#ff5c00"
       id="use22" />
    <use
       data-text=" "
       xlink:href="#font_9_3"
       transform="matrix(15.364786,4.454588,4.454588,-15.364786,197.00539,152.12697)"
       fill="#ff5c00"
       id="use23" />
    <use
       data-text="C"
       xlink:href="#font_9_694"
       transform="matrix(14.284196,7.2028977,7.2028977,-14.284196,200.46662,152.664)"
       fill="#ff5c00"
       id="use24" />
    <use
       data-text="S"
       xlink:href="#font_9_710"
       transform="matrix(12.143943,10.413675,10.413675,-12.143943,210.50528,157.7773)"
       fill="#ff5c00"
       id="use25" />
    <use
       data-text="S"
       xlink:href="#font_9_710"
       transform="matrix(9.720541,12.705553,12.705553,-9.720541,216.99074,163.209)"
       fill="#ff5c00"
       id="use26" />
  </g>
  <path
     transform="matrix(1,0,0,-1,0,383.03999)"
     d="M150 156.95365H225V216.95365H150Z"
     fill-opacity="0"
     id="path26" />
</svg>
