<?xml version="1.0" encoding="UTF-8" standalone="no"?>
<svg
   version="1.1"
   width="375"
   height="375"
   viewBox="75 75 225 225"
   id="svg26"
   sodipodi:docname="js_neon.svg"
   inkscape:version="1.4.2 (f4327f4, 2025-05-13)"
   xmlns:inkscape="http://www.inkscape.org/namespaces/inkscape"
   xmlns:sodipodi="http://sodipodi.sourceforge.net/DTD/sodipodi-0.dtd"
   xmlns:xlink="http://www.w3.org/1999/xlink"
   xmlns="http://www.w3.org/2000/svg"
   xmlns:svg="http://www.w3.org/2000/svg">
  <sodipodi:namedview
     id="namedview26"
     pagecolor="#ffffff"
     bordercolor="#999999"
     borderopacity="1"
     inkscape:showpageshadow="2"
     inkscape:pageopacity="0"
     inkscape:pagecheckerboard="0"
     inkscape:deskcolor="#d1d1d1"
     inkscape:zoom="2.28"
     inkscape:cx="187.5"
     inkscape:cy="187.5"
     inkscape:window-width="1920"
     inkscape:window-height="1057"
     inkscape:window-x="-8"
     inkscape:window-y="-8"
     inkscape:window-maximized="1"
     inkscape:current-layer="svg26" />
  <defs
     id="defs9">
    <clipPath
       id="clip_0">
      <path
         transform="matrix(.24,0,0,.24,0,0)"
         d="M0 0H1562.5V1562.5H0Z"
         clip-rule="evenodd"
         id="path1" />
    </clipPath>
    <clipPath
       id="clip_1">
      <path
         transform="matrix(.24,0,0,.24,0,0)"
         d="M0 0H1562.5V1562.5H0Z"
         clip-rule="evenodd"
         id="path2" />
    </clipPath>
    <clipPath
       id="clip_2">
      <path
         transform="matrix(.24,0,0,.24,0,0)"
         d="M0 0H1562.5V1562.5H0Z"
         id="path3" />
    </clipPath>
    <clipPath
       id="clip_3">
      <path
         transform="matrix(.24,0,0,.24,0,0)"
         d="M0 0H1562.5V1562.5H0Z"
         id="path4" />
    </clipPath>
    <clipPath
       id="clip_4">
      <path
         transform="matrix(.24,0,0,.24,0,0)"
         d="M546.875 546.875H1015.625V1015.625H546.875Z"
         id="path5" />
    </clipPath>
    <clipPath
       id="clip_5">
      <path
         transform="matrix(.24,0,0,.24,0,0)"
         d="M546.875 546.875H1015.625V1015.625H546.875Z"
         id="path6" />
    </clipPath>
    <clipPath
       id="clip_6">
      <path
         transform="matrix(.24,0,0,.24,0,0)"
         d="M781.25 546.875C651.8083 546.875 546.875 651.8083 546.875 781.25 546.875 910.6918 651.8083 1015.625 781.25 1015.625 910.6918 1015.625 1015.625 910.6918 1015.625 781.25 1015.625 651.8083 910.6918 546.875 781.25 546.875Z"
         id="path7" />
    </clipPath>
    <clipPath
       id="clip_7">
      <path
         transform="matrix(.24,0,0,.24,0,0)"
         d="M656.25 701.0066H906.25V951.0066H656.25Z"
         clip-rule="evenodd"
         id="path8" />
    </clipPath>
    <clipPath
       id="clip_8">
      <path
         transform="matrix(.24,0,0,.24,0,0)"
         d="M0 0H1562.5V1562.5H0Z"
         clip-rule="evenodd"
         id="path9" />
    </clipPath>
    <path
       id="font_9_701"
       d="M.42793275 .6972656V.1822052C.42793275 .1248525 .41026817 .07900492 .37493897 .044662477 .33961997 .0103302 .29296366-.0068359377 .2349701-.0068359377 .17632549-.0068359377 .12933858 .010645549 .0940094 .04560852 .058680219 .080581668 .041015626 .12836711 .041015626 .18896485H.13201905C.13201905 .1550293 .14055889 .12741089 .15763855 .10610962 .17471822 .08481852 .20033264 .07417297 .23448181 .07417297 .26863099 .07417297 .29407756 .084340419 .31082154 .10467529 .32756553 .12501018 .3359375 .15084839 .3359375 .18218994V.6972656H.42793275Z" />
    <path
       id="font_9_692"
       d="M.4889984 .15527344H.18499756L.1289978 .00048828127H.03300476L.28500367 .6933594H.3899994L.64100649 .00048828127H.54499819L.4889984 .15527344M.46299745 .22927857 .33700563 .5813446 .21099854 .22927857H.46299745Z" />
    <path
       id="font_9_713"
       d="M.6529999 .69677737 .3899994 0H.28500367L.022003174 .69677737H.119003299L.33799745 .095962528 .55700686 .69677737H.6529999Z" />
    <path
       id="font_9_710"
       d="M.29708863-.0068359377C.25099693-.0068359377 .20974732 .001332601 .17333985 .017669678 .13694255 .034006757 .10839335 .056671144 .08769226 .08566284 .06699117 .11465454 .056640626 .14815267 .056640626 .18615723H.1535492C.15687561 .15348308 .17036946 .12598165 .19403076 .103652957 .21769206 .081334438 .2521871 .07017517 .29751588 .07017517 .34085084 .07017517 .37501527 .08100382 .40000917 .10266113 .42500306 .12431844 .4375 .15215047 .4375 .18615723 .4375 .21280925 .43016563 .23446656 .41549684 .25112916 .40082804 .2678019 .38249717 .2804667 .36050416 .28912355 .33851115 .29779054 .30884806 .3071238 .2715149 .3171234 .2255249 .32912699 .18869527 .3411255 .161026 .3531189 .1333669 .36512248 .109705608 .3839518 .090042117 .40960694 .070378627 .43527223 .060546876 .46976725 .060546876 .51309207 .060546876 .5510966 .07021078 .5847626 .089538577 .61408999 .10887655 .64341738 .13604228 .66607668 .17103577 .6820679 .20602925 .6980591 .24619548 .7060547 .29153443 .7060547 .3568522 .7060547 .41033937 .6897227 .45199586 .6570587 .4936625 .6244049 .5171611 .581075 .52249148 .5270691H.4225006C.41916404 .55374148 .40516154 .57724 .38049317 .5975647 .35583497 .6178996 .32318116 .628067 .28253175 .628067 .24452718 .628067 .21352642 .6182353 .18952942 .5985718 .1655426 .57890829 .1535492 .5514119 .1535492 .51608279 .1535492 .49075318 .16071575 .47008769 .17504883 .4540863 .18938191 .43808494 .20704143 .42591859 .22802735 .41758729 .24902344 .40925599 .27852378 .399765 .31652833 .38911439 .3625183 .37643943 .3995107 .36393229 .4275055 .35159303 .45550028 .33926393 .47949729 .32026673 .49949647 .29460145 .51949569 .26894633 .52949526 .23412578 .52949526 .19013977 .52949526 .15614319 .5204773 .12414551 .5024414 .09414673 .48441569 .06414795 .45770265 .039815267 .42230226 .021148682 .38690187 .0024922689 .34516398-.0068359377 .29708863-.0068359377Z" />
    <path
       id="font_9_694"
       d="M.04296875 .34910584C.04296875 .417099 .058298749 .47825624 .08895874 .5325775 .119628909 .586909 .16146343 .6294047 .21446228 .6600647 .2674713 .6907247 .3263092 .7060547 .39097596 .7060547 .46697489 .7060547 .53330489 .6877187 .5899658 .65104678 .64663699 .61438497 .687973 .5623932 .713974 .4950714H.6049652C.5856374 .5370636 .55780538 .5693919 .5214691 .5920563 .48513285 .61473086 .44163514 .6260681 .39097596 .6260681 .34230042 .6260681 .29862977 .6147359 .259964 .59207156 .22129822 .56940719 .19096375 .53724166 .16896057 .49557496 .14696758 .45391847 .13597107 .40509544 .13597107 .34910584 .13597107 .29377748 .14696758 .24527996 .16896057 .20361328 .19096375 .16195679 .22129822 .12979634 .259964 .10713196 .29862977 .08446757 .34230042 .073135379 .39097596 .073135379 .44163514 .073135379 .48513285 .08429972 .5214691 .10662842 .55780538 .12895711 .5856374 .16112264 .6049652 .203125H.713974C.687973 .13645427 .64663699 .08495585 .5899658 .04862976 .53330489 .01230367 .46697489-.005859375 .39097596-.005859375 .3263092-.005859375 .2674713 .009302775 .21446228 .039627077 .16146343 .06996155 .119628909 .11212158 .08895874 .16610718 .058298749 .22010295 .04296875 .2811025 .04296875 .34910584Z" />
    <path
       id="font_9_709"
       d="M.4441986 0 .27816773 .28515626H.16815186V0H.07714844V.6970825H.3021698C.35484315 .6970825 .39934794 .6880849 .4356842 .6700897 .47202049 .65209457 .49919129 .62776187 .51719668 .5970917 .535202 .5664317 .5442047 .5314433 .5442047 .49212647 .5442047 .4441223 .530365 .40178935 .50268557 .36512757 .47501628 .32847596 .43351747 .30415345 .3781891 .29216004L.55319216 0H.4441986M.16815186 .3581543H.3021698C.35151673 .3581543 .38852439 .37031556 .41319276 .39463807 .4378611 .41897074 .4501953 .4514618 .4501953 .4921112 .4501953 .533432 .4380239 .5654195 .41368104 .58807376 .38934837 .6107381 .35217796 .6220703 .3021698 .6220703H.16815186V.3581543Z" />
    <path
       id="font_9_700"
       d="M.16815186 .6970062V0H.07714844V.6970062H.16815186Z" />
    <path
       id="font_9_707"
       d="M.54319766 .493042C.54319766 .43503825 .5233612 .38686625 .48368836 .348526 .4440155 .31018577 .3835093 .29101563 .3021698 .29101563H.16815186V0H.07714844V.6970825H.3021698C.38084413 .6970825 .440684 .67807516 .48168946 .6400604 .5226949 .60205587 .54319766 .55304977 .54319766 .493042M.3021698 .36601258C.35284934 .36601258 .3901876 .37701417 .41418458 .39901734 .43819175 .42103068 .4501953 .45237223 .4501953 .493042 .4501953 .57906088 .40085349 .6220703 .3021698 .6220703H.16815186V.36601258H.3021698Z" />
    <path
       id="font_9_711"
       d="M.5061798 .697052V.6230469H.31640626V0H.22541809V.6230469H.034179689V.697052H.5061798Z" />
  </defs>
  <g
     clip-path="url(#clip_0)"
     id="g10" />
  <g
     clip-path="url(#clip_2)"
     id="g16">
    <g
       clip-path="url(#clip_3)"
       id="g15">
      <g
         clip-path="url(#clip_4)"
         id="g14">
        <g
           clip-path="url(#clip_5)"
           id="g13">
          <g
             clip-path="url(#clip_6)"
             id="g12">
            <path
               transform="matrix(.75,0,0,.75,131.25,131.25)"
               stroke-width="2"
               stroke-linecap="butt"
               stroke-miterlimit="4"
               stroke-linejoin="miter"
               fill="none"
               stroke="#fc7e26"
               d="M75 0C33.578645 0 0 33.578645 0 75 0 116.42136 33.578645 150 75 150 116.42136 150 150 116.42136 150 75 150 33.578645 116.42136 0 75 0Z"
               id="path12" />
          </g>
        </g>
      </g>
    </g>
  </g>
  <g
     clip-path="url(#clip_7)"
     id="g17">
    <path
       transform="matrix(3.75,0,0,3.75,157.5,168.24158)"
       d="M2.1 3.1C2.3 4.3999998 2.5 4.7 2.5 6 2.5 6.8 1 7.5 1 7.5V8.5C1 8.5 2.5 9.2 2.5 10 2.5 11.3 2.3 11.6 2.1 12.9 1.8 15 2.8999999 16 3.8999999 16 4.8999998 16 6 16 6 16V14C6 14 4.2 14.2 4.2 13 4.2 12.1 4.3999998 12.1 4.6 10.1 4.7 9.200001 4.1 8.5 3.5 8 4.1 7.5 4.7 6.9 4.6 6 4.2999999 4 4.2 4 4.2 3.1 4.2 1.8999999 6 1.9999999 6 1.9999999V-.00000011920929C6-.00000011920929 5-.00000011920929 3.9-.00000011920929 2.8000003-.00000011920929 1.8000002 .9999999 2.1000002 3.1H2.1Z"
       fill="#ff5c00"
       id="path16" />
    <path
       transform="matrix(3.75,0,0,3.75,157.5,168.24158)"
       d="M13.9 3.1C13.7 4.3999998 13.5 4.7 13.5 6 13.5 6.8 15 7.5 15 7.5V8.5C15 8.5 13.5 9.2 13.5 10 13.5 11.3 13.7 11.6 13.9 12.9 14.2 15 13.099999 16 12.099999 16 11.099999 16 10 16 10 16V14C10 14 11.8 14.2 11.8 13 11.8 12.1 11.6 12.1 11.400001 10.1 11.3 9.200001 11.900001 8.5 12.500001 8 11.900001 7.5 11.300001 6.9 11.400001 6 11.6 4 11.8 4 11.8 3.1 11.8 1.8999999 10 1.9999999 10 1.9999999V-.00000011920929C10-.00000011920929 11-.00000011920929 12.1-.00000011920929 13.200001-.00000011920929 14.200001 .9999999 13.900001 3.1H13.9Z"
       fill="#ff5c00"
       id="path17" />
  </g>
  <g
     clip-path="url(#clip_8)"
     id="g26">
    <use
       data-text="J"
       xlink:href="#font_9_701"
       transform="matrix(9.264681,-13.041691,-13.041691,-9.264681,152.51427,171.54798)"
       fill="#ff5c00"
       id="use17" />
    <use
       data-text="A"
       xlink:href="#font_9_692"
       transform="matrix(11.825373,-10.774068,-10.774068,-11.825373,156.69705,165.27326)"
       fill="#ff5c00"
       id="use18" />
    <use
       data-text="V"
       xlink:href="#font_9_713"
       transform="matrix(14.048956,-7.651592,-7.651592,-14.048956,163.7984,158.62403)"
       fill="#ff5c00"
       id="use19" />
    <use
       data-text="A"
       xlink:href="#font_9_692"
       transform="matrix(15.465887,-4.0897829,-4.0897829,-15.465887,172.30776,153.84741)"
       fill="#ff5c00"
       id="use20" />
    <use
       data-text="S"
       xlink:href="#font_9_710"
       transform="matrix(15.988167,-.5463846,-.5463846,-15.988167,181.75337,151.31259)"
       fill="#ff5c00"
       id="use21" />
    <use
       data-text="C"
       xlink:href="#font_9_694"
       transform="matrix(15.65389,3.2978368,3.2978368,-15.65389,190.08785,150.72107)"
       fill="#ff5c00"
       id="use22" />
    <use
       data-text="R"
       xlink:href="#font_9_709"
       transform="matrix(14.382777,7.003976,7.003976,-14.382777,201.09407,153.06708)"
       fill="#ff5c00"
       id="use23" />
    <use
       data-text="I"
       xlink:href="#font_9_700"
       transform="matrix(13.15693,9.100284,9.100284,-13.15693,209.12906,157.16449)"
       fill="#ff5c00"
       id="use24" />
    <use
       data-text="P"
       xlink:href="#font_9_707"
       transform="matrix(11.684441,10.926747,10.926747,-11.684441,211.96683,158.82817)"
       fill="#ff5c00"
       id="use25" />
    <use
       data-text="T"
       xlink:href="#font_9_711"
       transform="matrix(9.290188,13.023534,13.023534,-9.290188,218.11879,164.50025)"
       fill="#ff5c00"
       id="use26" />
  </g>
  <path
     transform="matrix(1,0,0,-1,0,383.03999)"
     d="M157.5 154.7984H217.5V214.7984H157.5Z"
     fill-opacity="0"
     id="path26" />
</svg>
